<svg width="55" height="28" viewBox="0 0 55 28" fill="none" xmlns="http://www.w3.org/2000/svg">
<rect width="55" height="28" rx="14" fill="#FFF9D5"/>
<path d="M19.6621 18.6309H8.45117V17.5508H13.3867V14.7207H9.73633V8.89648H18.3223V14.7207H14.6719V17.5508H19.6621V18.6309ZM17.0508 13.6953V9.93555H10.9941V13.6953H17.0508ZM25.0898 9.86719C25.0898 10.373 25.2152 10.8584 25.4658 11.3232C25.7165 11.7881 26.0742 12.1982 26.5391 12.5537C27.0039 12.9046 27.5462 13.1712 28.166 13.3535L27.5098 14.3652C26.8034 14.1465 26.1859 13.8161 25.6572 13.374C25.1286 12.9274 24.723 12.401 24.4404 11.7949C24.1624 12.4466 23.7568 13.014 23.2236 13.4971C22.6904 13.9801 22.0592 14.3424 21.3301 14.584L20.6738 13.5586C21.2982 13.3672 21.8428 13.0846 22.3076 12.7109C22.777 12.3327 23.1393 11.8975 23.3945 11.4053C23.6497 10.9131 23.7773 10.4004 23.7773 9.86719V9.73047H21.0293V8.67773H27.7832V9.73047H25.0898V9.86719ZM22.6973 15.1172H23.9688V16.4844H29.4238V15.1172H30.709V20.0117H22.6973V15.1172ZM29.4238 18.959V17.5098H23.9688V18.959H29.4238ZM29.4102 7.91211H30.709V14.543H29.4102V7.91211ZM43.8203 14.6387H38.8711V15.8145C40.0059 15.8783 40.8854 16.0947 41.5098 16.4639C42.1341 16.833 42.4486 17.3366 42.4531 17.9746C42.4531 18.4349 42.2845 18.8268 41.9473 19.1504C41.61 19.474 41.1247 19.7178 40.4912 19.8818C39.8577 20.0505 39.1035 20.1348 38.2285 20.1348C37.3398 20.1348 36.5765 20.0505 35.9385 19.8818C35.305 19.7178 34.8197 19.474 34.4824 19.1504C34.1452 18.8268 33.9766 18.4349 33.9766 17.9746C33.9766 17.3366 34.291 16.833 34.9199 16.4639C35.5488 16.0902 36.4375 15.8737 37.5859 15.8145V14.6387H32.6504V13.5859H43.8203V14.6387ZM33.2383 11.918C33.9629 11.8451 34.6283 11.6924 35.2344 11.46C35.8405 11.2275 36.3304 10.9427 36.7041 10.6055C37.0778 10.2637 37.2943 9.89909 37.3535 9.51172H33.6758V8.47266H42.8223V9.51172H39.1035C39.1628 9.90365 39.3792 10.2705 39.7529 10.6123C40.1266 10.9495 40.6165 11.2344 41.2227 11.4668C41.8333 11.6947 42.5078 11.8451 43.2461 11.918L42.7812 12.9434C42.0703 12.8613 41.4095 12.7109 40.7988 12.4922C40.1927 12.2689 39.6686 11.9886 39.2266 11.6514C38.7845 11.3141 38.4541 10.9313 38.2354 10.5029C38.012 10.9313 37.6794 11.3141 37.2373 11.6514C36.7952 11.9886 36.2712 12.2689 35.665 12.4922C35.0589 12.7109 34.4004 12.8613 33.6895 12.9434L33.2383 11.918ZM35.2891 17.9746C35.2845 18.3483 35.5397 18.6377 36.0547 18.8428C36.5697 19.0433 37.2943 19.1413 38.2285 19.1367C39.1491 19.1413 39.8669 19.0433 40.3818 18.8428C40.8968 18.6377 41.1543 18.3483 41.1543 17.9746C41.1543 17.5964 40.8991 17.307 40.3887 17.1064C39.8783 16.9059 39.1582 16.8034 38.2285 16.7988C37.2852 16.8034 36.5583 16.9059 36.0479 17.1064C35.5374 17.307 35.2845 17.5964 35.2891 17.9746Z" fill="#FDB900"/>
</svg>
