<svg width="70" height="28" viewBox="0 0 70 28" fill="none" xmlns="http://www.w3.org/2000/svg">
<rect width="70" height="28" rx="14" fill="#F0F0F0"/>
<path d="M19.6621 18.6309H8.45117V17.5508H13.3867V14.7207H9.73633V8.89648H18.3223V14.7207H14.6719V17.5508H19.6621V18.6309ZM17.0508 13.6953V9.93555H10.9941V13.6953H17.0508ZM25.0898 9.86719C25.0898 10.373 25.2152 10.8584 25.4658 11.3232C25.7165 11.7881 26.0742 12.1982 26.5391 12.5537C27.0039 12.9046 27.5462 13.1712 28.166 13.3535L27.5098 14.3652C26.8034 14.1465 26.1859 13.8161 25.6572 13.374C25.1286 12.9274 24.723 12.401 24.4404 11.7949C24.1624 12.4466 23.7568 13.014 23.2236 13.4971C22.6904 13.9801 22.0592 14.3424 21.3301 14.584L20.6738 13.5586C21.2982 13.3672 21.8428 13.0846 22.3076 12.7109C22.777 12.3327 23.1393 11.8975 23.3945 11.4053C23.6497 10.9131 23.7773 10.4004 23.7773 9.86719V9.73047H21.0293V8.67773H27.7832V9.73047H25.0898V9.86719ZM22.6973 15.1172H23.9688V16.4844H29.4238V15.1172H30.709V20.0117H22.6973V15.1172ZM29.4238 18.959V17.5098H23.9688V18.959H29.4238ZM29.4102 7.91211H30.709V14.543H29.4102V7.91211ZM39.7871 8.45898C40.3796 8.45898 40.9059 8.56152 41.3662 8.7666C41.8311 8.97168 42.1934 9.25879 42.4531 9.62793C42.7129 9.99707 42.8451 10.4232 42.8496 10.9062C42.8451 11.3164 42.7425 11.6878 42.542 12.0205C42.346 12.3532 42.0703 12.6289 41.7148 12.8477C41.3594 13.0664 40.9447 13.2122 40.4707 13.2852V14.3789C41.6283 14.3151 42.6901 14.2103 43.6562 14.0645L43.752 15.0215C42.6582 15.2174 41.5029 15.3519 40.2861 15.4248C39.0739 15.4932 37.8229 15.5273 36.5332 15.5273H36.1914L36.0547 14.4746H36.6699C37.6315 14.4746 38.4655 14.4609 39.1719 14.4336V13.2988C38.6842 13.2305 38.2559 13.0869 37.8867 12.8682C37.5221 12.6494 37.2396 12.3714 37.0391 12.0342C36.8385 11.6969 36.7383 11.321 36.7383 10.9062C36.7383 10.4232 36.8659 9.99707 37.1211 9.62793C37.3809 9.25879 37.7409 8.97168 38.2012 8.7666C38.666 8.56152 39.1947 8.45898 39.7871 8.45898ZM37.791 16.4707H39.0898V18.8359H46.1445V19.9023H37.791V16.4707ZM37.9551 10.9062C37.9505 11.1888 38.0257 11.4395 38.1807 11.6582C38.3356 11.877 38.5521 12.0456 38.8301 12.1641C39.1081 12.2826 39.4271 12.3418 39.7871 12.3418C40.1471 12.3418 40.4661 12.2826 40.7441 12.1641C41.0221 12.0456 41.2363 11.8792 41.3867 11.665C41.5417 11.4463 41.6191 11.1934 41.6191 10.9062C41.6191 10.6146 41.5417 10.3594 41.3867 10.1406C41.2363 9.92188 41.0221 9.75326 40.7441 9.63477C40.4661 9.51628 40.1471 9.45703 39.7871 9.45703C39.4271 9.45703 39.1081 9.51628 38.8301 9.63477C38.5521 9.75326 38.3356 9.92188 38.1807 10.1406C38.0257 10.3594 37.9505 10.6146 37.9551 10.9062ZM44.4082 7.92578H45.707V11.9727H47.457V13.0664H45.707V17.291H44.4082V7.92578ZM59.3789 18.6992H48.168V17.6055H51.2305V15.4453H49.5352V11.5488H56.7266V9.83984H49.5078V8.77344H58.0117V12.6016H50.8203V14.3789H58.2988V15.4453H56.4395V17.6055H59.3789V18.6992ZM55.168 17.6055V15.4453H52.4883V17.6055H55.168Z" fill="#4F4F4F"/>
</svg>
